<?xml version="1.0" encoding="UTF-8" standalone="no"?>
<!-- Created with Inkscape (http://www.inkscape.org/) -->

<svg
   xmlns:dc="http://purl.org/dc/elements/1.1/"
   xmlns:cc="http://creativecommons.org/ns#"
   xmlns:rdf="http://www.w3.org/1999/02/22-rdf-syntax-ns#"
   xmlns:svg="http://www.w3.org/2000/svg"
   xmlns="http://www.w3.org/2000/svg"
   xmlns:sodipodi="http://sodipodi.sourceforge.net/DTD/sodipodi-0.dtd"
   xmlns:inkscape="http://www.inkscape.org/namespaces/inkscape"
   width="297mm"
   height="210mm"
   viewBox="0 0 1052.3622 744.09448"
   id="svg3387"
   version="1.1"
   inkscape:version="0.91 r13725"
   sodipodi:docname="logo_white.svg">
  <defs
     id="defs3389" />
  <sodipodi:namedview
     id="base"
     pagecolor="#ffffff"
     bordercolor="#666666"
     borderopacity="1.0"
     inkscape:pageopacity="0.0"
     inkscape:pageshadow="2"
     inkscape:zoom="0.86092991"
     inkscape:cx="295.14533"
     inkscape:cy="288.11921"
     inkscape:document-units="px"
     inkscape:current-layer="layer1"
     showgrid="false"
     inkscape:window-width="1920"
     inkscape:window-height="1138"
     inkscape:window-x="-8"
     inkscape:window-y="-8"
     inkscape:window-maximized="1" />
  <metadata
     id="metadata3392">
    <rdf:RDF>
      <cc:Work
         rdf:about="">
        <dc:format>image/svg+xml</dc:format>
        <dc:type
           rdf:resource="http://purl.org/dc/dcmitype/StillImage" />
        <dc:title></dc:title>
      </cc:Work>
    </rdf:RDF>
  </metadata>
  <g
     inkscape:label="Ebene 1"
     inkscape:groupmode="layer"
     id="layer1"
     transform="translate(0,-308.26772)">
    <path
       style="fill:#000000"
       d="m 29.74385,1033.6448 c -1.386676,-0.8712 -3.08715,-2.4478 -3.778832,-3.5035 -1.728577,-2.6381 -16.4487425,-53.92447 -15.89302,-55.37266 0.358744,-0.93487 2.243927,-1.16579 9.517316,-1.16579 7.835633,0 9.168721,0.1879 9.795661,1.38067 0.607589,1.15595 4.15863,13.79497 8.014131,28.52418 l 0.909602,3.475 7.660078,-14.29253 c 4.213042,-7.86089 8.497137,-15.18354 9.520209,-16.27256 4.036972,-4.29716 12.311959,-4.59028 16.635802,-0.58929 1.256386,1.16257 5.760477,8.71327 10.009087,16.77933 l 7.724756,14.66555 4.20975,-15.84898 c 2.315356,-8.71694 4.577757,-16.29277 5.027555,-16.83518 0.562831,-0.6787 3.501275,-0.98619 9.424455,-0.98619 7.1739,0 8.68755,0.21086 9.0927,1.26666 0.66314,1.72812 -14.6539,53.64189 -16.53101,56.02829 -4.792955,6.0932 -14.497415,5.5093 -18.947724,-1.1401 -1.673188,-2.5 -4.711016,-7.8368 -16.418895,-28.844 l -2.147266,-3.85283 -1.740011,3.45833 c -5.127583,10.1912 -16.74171,29.7977 -18.833725,31.7943 -3.221984,3.075 -9.475586,3.7033 -13.250619,1.3313 z m 11.392403,-2.7942 c 2.029632,-1.7078 8.034474,-11.747 18.315463,-30.6206 1.83187,-3.36291 3.826015,-6.11438 4.431433,-6.11438 0.605419,0 2.216441,2.21893 3.580049,4.93095 5.911323,11.75683 16.695534,29.82553 18.916665,31.69443 4.377063,3.6831 11.088094,2.4292 13.653817,-2.5511 0.99121,-1.924 15.46593,-50.24795 15.46593,-51.63309 0,-0.32291 -3.36286,-0.5871 -7.47302,-0.5871 l -7.47301,0 -1.160894,4.142 c -1.259476,4.49372 -6.1307,22.58919 -7.539612,28.00779 -1.04227,4.0086 -2.608894,4.3116 -4.079676,0.789 -2.486519,-5.9554 -15.750461,-30.40364 -17.213027,-31.72724 -2.266335,-2.05101 -8.90595,-2.57024 -11.460764,-0.89626 -2.603383,1.7058 -4.388226,4.61795 -13.040068,21.2762 -3.973853,7.6513 -7.687433,13.9114 -8.252399,13.9114 -0.566076,0 -1.266992,-1.3282 -1.56134,-2.9586 -0.293769,-1.6272 -2.342742,-9.61536 -4.553272,-17.75143 l -4.019145,-14.79286 -7.7633,0 c -4.269816,0 -7.755981,0.26627 -7.747035,0.59171 0.0089,0.32544 3.36427,12.13015 7.456274,26.23268 6.705763,23.1105 7.678647,25.8551 9.858093,27.8106 3.252639,2.9184 8.354873,3.026 11.658838,0.2459 z m 220.714117,2.8136 c -1.30177,-0.8607 -9.82247,-8.293 -18.93487,-16.5163 l -16.56801,-14.9515 -0.39448,15.8807 -0.39447,15.8806 -8.61459,0.2253 c -6.36089,0.1664 -8.78295,-0.04 -9.25812,-0.7889 -0.99042,-1.561 -0.80941,-48.58813 0.20129,-52.2962 1.11711,-4.09847 3.42759,-6.52757 7.16641,-7.53432 5.76921,-1.55349 7.56159,-0.43222 26.67854,16.68952 l 17.75144,15.8987 0.21445,-15.64681 c 0.15502,-11.30954 0.48306,-15.8175 1.18343,-16.26243 1.60362,-1.01872 15.91773,-0.75996 16.98472,0.30703 1.22943,1.22943 1.32943,46.10631 0.11535,51.76731 -1.18091,5.5064 -4.19259,8.2044 -9.60477,8.6046 -3.19287,0.236 -4.70948,-0.056 -6.52632,-1.2573 z m 10.55866,-2.1764 c 3.75852,-2.6326 4.03697,-4.7732 4.03697,-31.0352 l 0,-24.48289 -7.08489,0 -7.08488,0 -0.21293,16.70003 c -0.14215,11.14856 -0.49809,16.79486 -1.07076,16.98546 -0.4718,0.157 -9.34752,-7.3467 -19.72382,-16.67477 -19.58748,-17.60877 -21.38874,-18.79965 -26.07347,-17.23808 -1.19017,0.39673 -2.89561,1.70068 -3.78986,2.89767 -1.5517,2.077 -1.63633,3.34418 -1.85418,27.76088 l -0.22826,25.5844 7.1316,0 7.1316,0 0,-16.6228 c 0,-15.87044 0.0676,-16.6115 1.49295,-16.3708 0.82112,0.13866 9.91266,7.7965 20.20343,17.0174 18.03005,16.1555 18.83012,16.7652 22.00009,16.7652 1.80929,0 4.11617,-0.5789 5.12641,-1.2865 z m 602.71713,2.4678 c -11.48455,-2.175 -19.208,-7.0469 -22.85904,-14.4194 -1.76497,-3.5639 -1.85577,-4.6044 -2.10832,-24.15353 -0.21104,-16.33052 -0.0544,-20.56221 0.78217,-21.0924 1.67187,-1.05996 17.54126,-0.83918 18.6398,0.25932 0.68118,0.68115 0.94674,6.00757 0.94674,18.98673 0,10.86418 0.32316,18.64378 0.81231,19.55788 1.70635,3.1882 5.3293,4.1926 16.38584,4.5428 8.55407,0.2708 11.14096,0.084 14.00526,-1.0095 5.85726,-2.2369 5.87738,-2.3156 5.87738,-22.9853 0,-14.65311 0.21751,-18.44875 1.09909,-19.18043 0.72757,-0.60378 4.12835,-0.83649 10.05915,-0.68831 l 8.96006,0.22387 0.24465,18.54038 c 0.1518,11.50589 -0.0856,20.07369 -0.62572,22.58159 -1.87092,8.6868 -7.76929,14.4577 -18.15932,17.7671 -6.81301,2.17 -25.1994,2.7472 -34.06005,1.0692 z m 34.39661,-3.4076 c 8.23793,-2.9898 13.39847,-7.766 15.56999,-14.4104 0.49609,-1.5182 1.04015,-10.8656 1.24725,-21.43027 l 0.36726,-18.73762 -8.32621,0 -8.32622,0 -0.23708,19.00091 -0.23708,19.00088 -2.48417,2.2183 c -3.04118,2.7157 -8.39194,3.9613 -17.01661,3.9613 -9.63864,0 -16.1187,-1.3522 -19.05779,-3.9767 l -2.46698,-2.2029 -0.23708,-19.00088 -0.23708,-19.00091 -7.89892,0 -7.89891,0 0.24647,19.92105 c 0.23179,18.73534 0.34934,20.11334 1.97514,23.15154 5.34271,9.9845 16.16304,13.8394 37.71897,13.4379 10.54814,-0.1965 13.39192,-0.5141 17.29905,-1.9322 z m -758.33242,-26.3732 0.20661,-30.17747 9.46744,0 9.46743,0 0.20662,30.17747 0.20661,30.1774 -9.88066,0 -9.88066,0 0.20661,-30.1774 z m 17.95805,-0.1973 0,-28.00779 -8.284,0 -8.28401,0 0,28.00779 0,28.0078 8.28401,0 8.284,0 0,-28.0078 z m 167.25802,9.0921 0,-21.28269 -13.2049,-0.21631 c -11.27043,-0.18462 -13.23979,-0.39809 -13.44311,-1.45711 -0.27445,-1.42954 10.1895,-15.29214 12.09495,-16.02333 1.64453,-0.63107 63.73256,-0.63907 65.37599,-0.008 0.68638,0.26338 1.24796,0.80102 1.24796,1.19473 0,0.81225 -10.86266,14.97919 -12.16735,15.8685 -0.46771,0.3188 -5.19948,0.58507 -10.51505,0.59172 l -9.66467,0.0121 0,21.30174 0,21.3017 -9.86191,0 -9.86191,0 0,-21.2826 z m 18.14591,-2.3631 0,-21.2788 10.42129,-0.22013 10.42128,-0.22014 5.02057,-6.50886 5.02058,-6.50886 -31.51681,0 -31.51682,0 -4.83229,6.24656 c -2.65777,3.43561 -4.8323,6.45336 -4.8323,6.7061 0,0.25274 5.68046,0.45953 12.62324,0.45953 l 12.62325,0 0,21.3017 0,21.3017 8.28401,0 8.284,0 0,-21.2788 z m 65.2298,23.1294 c -0.29461,-0.2946 -0.53566,-13.7521 -0.53566,-29.9055 0,-26.05359 0.1409,-29.42385 1.24796,-29.84866 1.62972,-0.62539 65.30221,-0.62539 66.93193,0 0.68638,0.26338 1.24796,0.80101 1.24796,1.19472 0,0.81225 -10.86266,14.9792 -12.16735,15.86851 -0.46771,0.3188 -8.92728,0.58507 -18.79905,0.59171 l -17.94868,0.0121 0,1.97238 0,1.97238 21.89344,0.0121 c 12.0414,0.006 22.37853,0.3194 22.97142,0.695 1.30161,0.8246 1.15063,1.09682 -4.99789,9.0109 l -4.70888,6.0611 -17.57904,0 -17.57905,0 0,2.7613 0,2.7613 24.45754,0 c 20.47148,0 24.45754,0.1806 24.45754,1.1078 0,0.6093 -2.59371,4.4258 -5.7638,8.4812 l -5.76382,7.3735 -28.41445,0.207 c -15.62795,0.1138 -28.6555,-0.034 -28.95012,-0.3288 z m 60.90608,-8.1622 4.89239,-6.3116 -23.20855,0 c -19.10388,0 -23.37326,-0.1985 -24.13984,-1.1221 -0.52113,-0.6279 -0.82428,-2.7997 -0.68832,-4.931 l 0.24297,-3.8088 17.91934,-0.212 17.91936,-0.212 4.31358,-5.3106 4.31359,-5.31074 -22.23293,-0.39448 -22.23294,-0.39447 0,-3.94477 0,-3.94476 18.93487,-0.23028 18.93487,-0.23029 3.55029,-4.78336 c 1.95265,-2.63085 4.20119,-5.63372 4.99676,-6.67305 l 1.44646,-1.88969 -32.01839,0 -32.01839,0 0,28.00779 0,28.0078 27.09124,0 27.09124,0 4.8924,-6.3116 z m 40.09323,8.1756 c -0.30195,-0.302 -0.549,-7.3749 -0.549,-15.7177 0,-13.1041 0.16986,-15.2339 1.24795,-15.6476 0.68638,-0.2634 13.13002,-0.4789 27.65253,-0.4789 29.94544,0 31.05994,-0.1812 31.05994,-5.05181 0,-4.80143 0.18005,-4.77089 -30.68175,-5.20453 -24.70347,-0.34711 -28.1033,-0.54347 -28.31311,-1.63527 -0.27469,-1.42944 10.1891,-15.29207 12.09473,-16.02333 2.01359,-0.77268 34.70952,-0.53907 42.7232,0.30526 12.09572,1.27442 18.80636,4.69149 22.88659,11.65385 1.86539,3.18306 2.17238,4.56195 2.14577,9.63794 -0.0234,4.47429 -0.44384,6.71379 -1.71829,9.15399 -1.85897,3.5593 -6.3835,7.8988 -9.4521,9.0655 -1.92993,0.7337 -1.78722,0.9438 6.39927,9.4173 4.60527,4.7667 8.37322,9.1981 8.37322,9.8475 0,0.9989 -1.93664,1.1807 -12.57981,1.1807 l -12.57981,0 -6.8317,-7.8895 -6.83171,-7.8895 -12.5125,0 -12.51251,0 -0.22581,7.6922 -0.22581,7.6923 -9.51014,0.2203 c -5.23057,0.1212 -9.75719,-0.027 -10.05915,-0.3287 z m 17.59691,-9.359 0,-7.4951 14.79287,0.04 14.79287,0.04 6.1992,7.4547 6.19921,7.4546 10.24503,0 10.24503,0 -3.16809,-3.7475 c -1.74245,-2.0611 -5.3258,-5.8666 -7.963,-8.4565 -2.63719,-2.59 -4.7949,-5.0926 -4.7949,-5.5614 0,-0.4689 1.28331,-1.3165 2.8518,-1.8837 7.35964,-2.6612 11.80049,-9.8719 11.19922,-18.18432 -0.47194,-6.52451 -3.4321,-10.59574 -10.20089,-14.02974 -6.92972,-3.51565 -12.20885,-4.13959 -35.08338,-4.14648 l -19.79342,-0.006 -4.86135,6.27156 c -2.67374,3.44937 -4.86135,6.46711 -4.86135,6.7061 0,0.239 11.73358,0.43453 26.07462,0.43453 21.71379,0 26.46001,0.19929 28.37892,1.1916 5.87755,3.0394 5.13409,10.6016 -1.28208,13.0411 -1.12871,0.4291 -13.42594,0.7574 -28.3708,0.7574 l -26.37857,0 0,13.8067 0,13.8066 7.88953,0 7.88953,0 0,-7.495 z m 120.46985,9.359 c -0.30196,-0.302 -0.54901,-9.8981 -0.54901,-21.3248 l 0,-20.77574 -12.16424,0 c -12.06975,0 -14.66016,-0.29572 -14.66016,-1.67361 0,-0.80929 10.85607,-14.97204 12.16735,-15.87344 0.46771,-0.3215 15.57927,-0.49902 33.58126,-0.39447 29.04256,0.16867 32.75781,0.3299 32.96969,1.43088 0.27509,1.42927 -10.18842,15.29195 -12.09435,16.02333 -0.69845,0.26802 -5.31791,0.48731 -10.26545,0.48731 l -8.99555,0 -0.21013,21.10444 -0.21012,21.1045 -9.51014,0.2203 c -5.23058,0.1212 -9.7572,-0.027 -10.05915,-0.3287 z m 17.59691,-23.1657 0,-21.3017 10.55228,0 10.55228,0 4.8323,-6.24656 c 2.65776,-3.43561 4.8323,-6.45336 4.8323,-6.7061 0,-0.25274 -14.1124,-0.44102 -31.36088,-0.4184 l -31.36088,0.0411 -4.86865,6.46772 -4.86864,6.46774 12.95541,0.21631 12.95542,0.21632 0,21.28267 0,21.2826 7.88953,0 7.88953,0 0,-21.3017 z m 66.00906,23.1426 c -0.28929,-0.2892 -0.52597,-13.7424 -0.52597,-29.8958 0,-26.05359 0.1409,-29.42385 1.24795,-29.84866 2.36412,-0.90721 17.32513,-0.52509 18.31808,0.46785 0.62938,0.62938 0.94674,4.0675 0.94674,10.25639 l 0,9.30964 15.77906,0 15.77906,0 0,-9.30964 c 0,-6.18889 0.31739,-9.62701 0.94674,-10.25639 1.07984,-1.07988 16.95523,-1.32784 18.58962,-0.29036 0.77901,0.49456 0.95085,7.06283 0.78896,30.16537 l -0.20703,29.5331 -9.40471,0.2235 c -6.99351,0.1661 -9.56937,-0.036 -10.047,-0.789 -0.35337,-0.5568 -0.64789,-5.539 -0.65451,-11.0715 l -0.0121,-10.0592 -15.77906,0 -15.77906,0 0,9.7974 c 0,5.3886 -0.21549,10.359 -0.47889,11.0453 -0.399,1.0398 -2.02203,1.248 -9.73041,1.248 -5.08835,0 -9.48823,-0.2367 -9.7775,-0.526 z m 17.61994,-12.8862 0,-11.0453 18.14592,0 18.14591,0 0,11.0453 0,11.0453 7.88953,0 7.88953,0 0,-28.0078 0,-28.00779 -7.88953,0 -7.88953,0 0,10.25638 0,10.25639 -18.14591,0 -18.14592,0 0,-10.25639 0,-10.25638 -7.88953,0 -7.88953,0 0,28.00779 0,28.0078 7.88953,0 7.88953,0 0,-11.0453 z m 204.07584,12.8862 c -0.28931,-0.2892 -0.526,-7.3518 -0.526,-15.6946 0,-13.1041 0.16987,-15.2339 1.24797,-15.6476 0.68639,-0.2634 13.24202,-0.4789 27.9014,-0.4789 25.76998,0 26.72238,-0.054 28.73228,-1.6351 2.4106,-1.89619 2.7977,-5.46396 0.7753,-7.14397 -1.0302,-0.85571 -7.1913,-1.16552 -29.37827,-1.47727 -25.59837,-0.35968 -28.09738,-0.51266 -28.33217,-1.73436 -0.28536,-1.48476 10.12716,-15.16189 12.12715,-15.92937 2.00331,-0.76874 34.72459,-0.53095 42.70979,0.31039 12.2941,1.29532 19.7487,5.27779 23.1914,12.38957 2.2591,4.66663 2.4527,11.77069 0.4618,16.94511 -1.486,3.8626 -6.246,8.8287 -9.7325,10.1543 -1.9775,0.7518 -1.8807,0.8963 6.3529,9.4887 4.5985,4.799 8.3609,9.2325 8.3609,9.8522 0,0.9294 -2.1782,1.1248 -12.426,1.1148 -6.8343,-0.01 -12.7915,-0.2729 -13.2382,-0.5917 -0.4467,-0.3188 -3.5773,-3.8636 -6.9569,-7.8774 l -6.1447,-7.2978 -12.56969,0 -12.56968,0 0,6.6415 c 0,3.6529 -0.21546,7.2032 -0.4789,7.8895 -0.39897,1.0398 -2.022,1.248 -9.73039,1.248 -5.08835,0 -9.48826,-0.2367 -9.77749,-0.526 z m 17.61992,-9.3359 0,-7.4951 14.79287,0.051 14.79286,0.051 6.1472,7.444 6.1472,7.444 10.3048,0 10.3049,0 -4.8143,-5.4302 c -2.6479,-2.9867 -6.2347,-6.7135 -7.9708,-8.282 -1.7361,-1.5684 -3.1552,-3.2964 -3.1536,-3.84 0,-0.5435 1.6031,-1.6462 3.5587,-2.4505 8.1308,-3.3437 12.588,-13.35454 9.7471,-21.89132 -1.2392,-3.7235 -6.5228,-8.98959 -10.9157,-10.87932 -6.0018,-2.58196 -12.7374,-3.23006 -33.63444,-3.23636 l -19.80161,-0.006 -5.25364,6.7061 -5.25364,6.70609 26.06677,0 c 20.69276,0 26.61776,0.23021 28.73926,1.11664 6.8227,2.85071 5.4428,11.88528 -2.044,13.38258 -1.3498,0.2704 -13.9483,0.4913 -27.99664,0.4913 l -25.54235,0 0,13.8067 0,13.8066 7.88953,0 7.88953,0 0,-7.495 z M 508.79262,905.26184 c -34.45665,-2.74022 -67.56997,-10.93449 -97.43568,-24.11158 -87.85828,-38.76407 -151.2507,-118.57003 -168.77777,-212.47762 -5.70041,-30.542 -6.35634,-67.13175 -1.75377,-97.83014 l 1.30115,-8.67848 26.3365,-0.208 26.3365,-0.208 -0.44212,3.36381 c -0.24317,1.8501 -1.21356,8.1567 -2.15643,14.01467 -2.13836,13.28542 -3.01073,44.22488 -1.62897,57.77249 4.81721,47.2305 22.12978,90.01196 51.3299,126.84244 8.4224,10.62329 27.28822,29.49096 37.79584,37.79957 37.54159,29.68495 80.99982,47.01061 128.98892,51.42452 14.05534,1.29278 40.37853,0.5083 54.54368,-1.62549 89.00394,-13.40724 162.2552,-74.01548 191.68956,-158.60434 7.22694,-20.76887 13.04371,-51.26923 13.04371,-68.39498 l 0,-3.42681 -19.8462,0.21079 -19.84618,0.21078 -47.19276,66.62303 c -29.05866,41.02274 -49.09597,68.57079 -52.14575,71.69193 -9.97139,10.2047 -19.04572,14.34739 -31.4272,14.34739 -8.60981,0 -13.99004,-1.09711 -19.87087,-4.05196 -9.93332,-4.99104 -11.97809,-7.62344 -61.79354,-79.55176 l -46.46196,-67.08624 -36.11169,0 -36.1117,0 0,24.45753 0,24.45753 -29.5918,0 -29.5918,0 0.2033,-48.32335 0.20331,-48.32335 86.78481,-0.39448 c 78.56604,-0.35712 87.09387,-0.51892 90.04817,-1.7085 12.11782,-4.87936 16.49959,-10.14797 15.9264,-19.14976 -0.40477,-6.35677 -2.60281,-10.47202 -7.29131,-13.65107 -8.48468,-5.75302 2.95784,-5.3091 -142.83661,-5.54146 -72.016,-0.11477 -131.2386,-0.50911 -131.60579,-0.87629 -0.83206,-0.83207 5.31782,-19.42355 10.60217,-32.05104 14.69074,-35.10501 35.38697,-65.91443 62.56859,-93.14259 23.88606,-23.92695 45.80113,-39.84512 75.36951,-54.7452 30.15361,-15.19497 58.42717,-23.93447 93.49092,-28.89851 11.69711,-1.65598 49.74719,-2.38153 62.72175,-1.196 68.87705,6.29355 131.25546,35.23099 179.55629,83.29646 30.92815,30.77744 52.4209,63.85944 67.92269,104.54775 4.01616,10.54152 9.71966,29.365 9.71966,32.07832 l 0,1.86763 -26.62716,-0.20773 -26.62716,-0.20773 -1.84394,-5.52267 c -8.84953,-26.50461 -23.74607,-53.97421 -40.85898,-75.34498 -7.22462,-9.0222 -23.44349,-25.57213 -32.64208,-33.3084 -36.16439,-30.41527 -78.43647,-48.6894 -126.62694,-54.74053 -12.37475,-1.55387 -39.68213,-1.74705 -51.67641,-0.36558 -64.75503,7.45831 -121.38398,38.21813 -161.49479,87.72104 -5.58306,6.89036 -14.4417,19.10652 -14.4417,19.91527 0,0.24264 41.98215,0.55974 93.29367,0.70466 84.44585,0.23851 94.07932,0.39462 101.57769,1.64606 27.6951,4.62215 45.3223,13.44239 57.59671,28.82004 8.58865,10.76006 11.40059,19.73615 11.40059,36.39223 0,9.54319 -0.29785,12.47883 -1.79655,17.70679 -3.00805,10.49307 -7.44934,18.05826 -15.13932,25.78799 -5.72351,5.75309 -7.92933,7.36351 -14.23011,10.389 -4.10115,1.96929 -11.26937,4.76344 -15.92937,6.20924 -4.66001,1.4458 -8.47657,2.90068 -8.48125,3.23308 -0.008,0.55204 59.34127,88.51705 60.69763,89.96383 0.32359,0.34518 21.6495,-29.1222 47.3909,-65.48307 25.74141,-36.36086 47.18676,-66.3715 47.65633,-66.6903 0.46958,-0.3188 28.4138,-0.58507 62.09827,-0.59171 48.05547,-0.009 61.41646,0.2003 62.04321,0.97411 2.78705,3.44113 4.14366,55.22839 1.91692,73.17536 -2.76418,22.27895 -6.57608,39.76531 -12.85575,58.97393 -20.5195,62.76602 -61.7068,116.54503 -117.08258,152.87682 -38.40625,25.19818 -78.59807,39.87224 -125.44351,45.79953 -9.0668,1.14722 -45.82712,2.10885 -54.43775,1.42408 z m 37.86974,-1.88162 c 71.99989,-5.09062 135.89159,-33.83438 185.8521,-83.6116 47.83266,-47.65716 75.30227,-104.25238 84.05964,-173.18666 2.30304,-18.12869 1.70201,-61.52205 -0.98074,-70.8085 -0.37547,-1.29956 -3.9768,-1.38067 -61.29939,-1.38067 l -60.9005,0 -47.2088,66.6665 c -25.96484,36.66658 -47.67457,66.6665 -48.24383,66.6665 -0.89908,0 -62.81431,-90.37265 -63.9591,-93.3559 -0.32443,-0.84543 2.0585,-1.91578 9.67538,-4.34591 16.15314,-5.1536 22.23374,-8.482 30.22389,-16.54397 7.77541,-7.84528 12.37965,-15.7608 15.10117,-25.96159 2.28232,-8.55455 2.29478,-23.41104 0.0267,-31.9059 -4.34577,-16.27708 -15.38522,-28.83068 -32.87915,-37.38879 -10.40049,-5.08796 -18.91834,-7.63254 -33.37906,-9.97149 -10.63374,-1.71996 -12.25198,-1.75149 -103.70151,-2.02086 -86.90048,-0.25597 -92.89781,-0.36045 -92.87767,-1.61813 0.0275,-1.71365 9.5113,-15.06481 17.85409,-25.13458 3.53968,-4.27241 10.81777,-12.05178 16.17353,-17.2875 38.0112,-37.1592 85.28836,-60.08121 138.46836,-67.13544 14.29007,-1.89555 46.54468,-1.8756 60.61807,0.0375 28.47097,3.87025 50.74117,10.66346 76.52843,23.34394 45.38785,22.31875 82.30923,58.20695 106.34793,103.37198 5.57157,10.46811 9.26906,18.97796 13.88326,31.95258 l 3.64751,10.25639 25.13141,0.20844 c 22.40426,0.18582 25.08062,0.0761 24.66327,-1.01156 -0.25752,-0.671 -0.99432,-3.25 -1.63739,-5.73111 -7.59289,-29.29471 -25.26585,-66.04201 -44.38182,-92.28284 -22.27183,-30.57295 -50.97467,-57.36381 -82.18335,-76.70886 -67.4195,-41.79073 -149.77252,-54.10861 -226.33157,-33.85336 -63.50803,16.80235 -119.75353,55.27321 -159.77292,109.28168 -12.95197,17.47941 -27.13506,43.26383 -35.53128,64.59474 -3.62376,9.20631 -8.44957,23.19154 -8.44957,24.48693 0,0.18833 59.20106,0.43627 131.5579,0.55099 l 131.55789,0.20857 4.6397,1.87044 c 5.50304,2.2185 10.23183,6.26485 12.50344,10.69898 2.46891,4.81928 2.37334,13.11996 -0.20457,17.76841 -3.66017,6.59997 -12.14645,11.23902 -23.18452,12.67388 -3.08004,0.40038 -42.15104,0.73738 -87.04773,0.7508 l -81.45938,0.0244 0,46.54821 0,46.54821 28.00782,0 28.00783,0 0,-24.45754 0,-24.45753 37.6725,0.0349 37.6725,0.0349 46.15374,66.73969 c 25.38456,36.70683 47.98888,68.60683 50.23181,70.88889 8.21733,8.36066 15.53764,11.91837 26.16415,12.71593 7.82499,0.5873 14.15707,-0.62464 21.11421,-4.04121 10.88497,-5.34547 12.92351,-7.90162 64.98203,-81.48186 l 47.58564,-67.25822 21.19354,0 21.19355,0 0,6.51369 c 0,7.35177 -1.68908,22.89993 -3.57778,32.93394 -11.28969,59.97811 -43.97349,112.34874 -93.05881,149.11206 -29.48754,22.08522 -63.21002,36.86967 -99.81268,43.75939 -25.92995,4.88079 -62.2483,4.88511 -88.36272,0.0105 -81.57417,-15.22687 -149.30077,-70.98355 -180.14469,-148.30609 -11.52959,-28.90349 -16.5283,-55.55571 -16.57271,-88.3627 -0.0275,-20.27188 1.35954,-35.20052 4.63624,-49.90126 l 0.39567,-1.77514 -24.45754,0 -24.45754,0 -0.39573,1.77514 c -2.76976,12.42443 -4.68424,39.05449 -4.12631,57.39631 1.699,55.85437 18.18493,107.0414 49.61812,154.05877 18.21941,27.25239 44.5711,54.14806 72.80799,74.311 52.63942,37.58789 120.90706,56.99691 184.6293,52.49155 z"
       id="path3406"
       inkscape:connector-curvature="0" />
    <path
       style="fill:#ffffff;stroke:none"
       d="M 494.73711,593.73391 C 430.89318,585.44293 375.27542,559.03284 329.42613,515.236 c -26.08765,-24.91984 -44.1637,-49.54677 -60.07289,-81.8437 -14.2136,-28.85477 -22.93289,-57.19124 -27.50843,-89.39862 -3.11975,-21.95997 -2.2098,-71.00132 1.60095,-86.28351 0.64985,-2.60606 0.72039,-2.61346 24.918,-2.61346 13.34647,0 24.26631,0.26697 24.26631,0.59328 0,0.3263 -0.87766,5.68388 -1.95037,11.90573 -2.73561,15.86704 -2.78437,58.86053 -0.0859,75.77763 4.01622,25.17851 11.24389,47.47459 22.96848,70.85362 33.98681,67.77027 96.58466,114.8405 171.88259,129.24652 11.56836,2.21327 17.32519,2.55774 42.97678,2.57164 30.90084,0.0167 37.10784,-0.60472 58.07674,-5.81474 59.1671,-14.7009 109.85017,-50.62028 144.19519,-102.19195 22.1049,-33.19222 36.91867,-78.25675 38.37328,-116.73425 l 0.37325,-9.87304 -20.99122,-0.31579 -20.99122,-0.31578 -17.87401,25.28878 c -65.99343,93.36981 -80.47307,113.01655 -87.89703,119.26339 -12.61635,10.61596 -33.59919,11.33645 -47.69581,1.63772 -6.83807,-4.70472 -11.14763,-10.64617 -85.78023,-118.26225 l -17.31898,-24.973 -37.44245,-0.30647 -37.44247,-0.30648 0,24.40832 0,24.40832 -28.4576,0 -28.4576,0 0,-46.42582 0,-46.42583 86.24395,-0.3596 c 64.44085,-0.26868 87.30625,-0.7212 90.44596,-1.79 10.69187,-3.63966 17.28639,-11.22749 17.28639,-19.89019 0,-6.90124 -2.94792,-12.29966 -9.18556,-16.82122 l -4.97479,-3.60614 -37.34853,-0.74108 c -20.54169,-0.40759 -80.85048,-0.79961 -134.01952,-0.87115 l -96.671,-0.13007 4.72061,-13.64803 c 9.64874,-27.89602 27.90058,-61.1431 46.07054,-83.92089 C 347.89959,69.361532 413.26572,31.247383 486.0256,19.8264 c 16.34714,-2.56598 52.71651,-3.477077 69.76025,-1.747579 76.64658,7.777647 142.89227,42.269339 193.0318,100.504579 19.52033,22.67215 38.10242,53.77442 50.06084,83.79061 5.33549,13.39235 10.93455,31.90061 9.94986,32.89029 -1.10692,1.11253 -29.4435,1.41967 -39.81123,0.43152 l -9.71523,-0.92596 -3.96159,-11.03458 C 744.17074,192.62369 726.20614,164.04876 702.1059,139.05935 664.8785,100.45847 615.93258,75.282512 563.11859,67.569465 c -15.9973,-2.336274 -51.95428,-2.361741 -68.23037,-0.04832 -55.73844,7.922436 -106.18039,34.851395 -144.84543,77.327245 -8.97769,9.86253 -21.70177,26.49698 -23.14497,30.2579 -0.60937,1.58799 6.30245,1.87185 62.2797,2.55769 34.63084,0.42429 76.59976,0.77354 93.26427,0.77611 32.10402,0.005 44.06623,1.19028 59.40436,5.88637 19.84969,6.07738 35.72197,18.24756 42.99751,32.96859 10.70938,21.66897 6.62075,49.43297 -9.80215,66.56172 -7.75355,8.0868 -14.70547,12.28872 -27.32507,16.51596 -5.82082,1.94983 -11.35629,4.03368 -12.30105,4.63079 -1.40106,0.88548 0.4191,4.24905 9.87304,18.24491 14.57251,21.57347 47.83938,69.80278 50.50405,73.21922 l 2.00256,2.56754 2.35438,-2.56754 c 1.96282,-2.14052 57.17503,-79.28804 85.58857,-119.59216 l 7.98387,-11.32496 44.24755,0.005 c 57.244,0.006 76.94189,0.85522 78.07775,3.36811 1.55744,3.44555 1.91285,57.94765 0.45444,69.68782 -10.5005,84.52834 -53.8979,157.06749 -122.83403,205.31817 -35.22607,24.6559 -74.2332,40.29504 -119.94609,48.09003 -18.70874,3.19022 -60.61741,4.1002 -78.98437,1.715 l 0,-3.9e-4 z"
       id="path3410"
       inkscape:connector-curvature="0"
       transform="translate(0,308.26772)" />
    <path
       style="fill:#ed1d24;fill-opacity:1;stroke:none;stroke-opacity:1"
       d="m 29.5451,721.76663 c -1.515513,-1.51551 -3.268137,-4.52098 -3.894718,-6.67882 -0.626581,-2.15784 -3.805727,-13.0267 -7.064768,-24.15303 -3.259042,-11.12633 -5.925531,-20.92678 -5.925531,-21.77878 0,-1.13127 2.024307,-1.54909 7.505206,-1.54909 l 7.505206,0 1.346758,4.93652 c 0.740718,2.71509 2.801992,10.33159 4.580607,16.92554 3.081853,11.42553 4.07981,13.97404 5.046414,12.88719 0.236735,-0.26619 3.950757,-7.01761 8.253384,-15.00316 9.536528,-17.69952 11.782504,-20.25193 17.673627,-20.08494 5.55444,0.15745 7.204695,2.2024 16.774606,20.78665 4.067095,7.89808 7.80314,14.36872 8.302323,14.37919 1.233162,0.0259 1.832797,-1.71678 6.588051,-19.14627 l 4.119695,-15.09995 7.25959,-0.34581 c 6.34168,-0.30208 7.25938,-0.0818 7.25793,1.7423 -0.003,3.23877 -13.8699,48.22445 -15.765847,51.14451 -0.926695,1.42726 -3.023559,2.931 -4.659698,3.34164 -6.524921,1.63765 -9.598136,-1.82022 -23.083842,-25.97312 -3.656142,-6.54815 -7.026076,-11.90573 -7.488741,-11.90573 -0.462666,0 -4.727031,6.81566 -9.476369,15.14592 -11.015118,19.32033 -14.122933,23.18472 -18.645566,23.18472 -2.08474,0 -4.544625,-1.09178 -6.208317,-2.75548 z"
       id="path4223"
       inkscape:connector-curvature="0"
       transform="translate(0,308.26772)" />
    <path
       style="fill:#ed1d24;fill-opacity:1;stroke:none;stroke-opacity:1"
       d="m 152.04425,695.48375 0,-27.87684 8.71151,0 8.71151,0 0,27.87684 0,27.87683 -8.71151,0 -8.71151,0 0,-27.87683 z"
       id="path4225"
       inkscape:connector-curvature="0"
       transform="translate(0,308.26772)" />
    <path
       style="fill:#ed1d24;fill-opacity:1;stroke:none;stroke-opacity:1"
       d="m 262.91292,722.89915 c -1.27441,-0.89263 -10.14578,-8.46945 -19.71416,-16.83739 -9.56838,-8.36793 -17.78907,-15.21661 -18.2682,-15.21929 -0.47914,-0.003 -0.87115,7.31281 -0.87115,16.25662 l 0,16.26149 -7.72936,0 -7.72937,0 0.80979,-25.84415 c 0.72031,-22.98848 1.04851,-26.08479 2.9703,-28.02202 1.18828,-1.19784 3.51372,-2.17788 5.16766,-2.17788 3.63849,0 6.49945,2.13574 27.07997,20.21551 l 16.01935,14.07283 0.75628,-6.25478 c 0.41595,-3.44013 0.80797,-11.08967 0.87115,-16.99898 l 0.11487,-10.7442 7.03098,0 7.03097,0 -0.35215,26.23909 c -0.34864,25.97765 -0.37947,26.2612 -3.09428,28.4576 -3.24412,2.62464 -6.88868,2.8397 -10.09265,0.59555 z"
       id="path4227"
       inkscape:connector-curvature="0"
       transform="translate(0,308.26772)" />
    <path
       style="fill:#ed1d24;fill-opacity:1;stroke:none;stroke-opacity:1"
       d="m 337.88981,702.45295 0,-20.90762 -11.5468,0 c -6.521,0 -11.86237,-0.51061 -12.27183,-1.17313 -0.39877,-0.64522 1.26913,-3.7591 3.70644,-6.91973 l 4.43147,-5.74661 31.68945,-0.0495 31.68945,-0.0495 -4.70288,6.22891 c -4.39408,5.81993 -5.10201,6.27686 -10.78182,6.95912 -3.34342,0.40161 -8.30038,0.73474 -11.01547,0.74029 l -4.93652,0.0101 0,20.90762 0,20.90763 -8.13075,0 -8.13074,0 0,-20.90763 z"
       id="path4229"
       inkscape:connector-curvature="0"
       transform="translate(0,308.26772)" />
    <path
       style="fill:#ed1d24;fill-opacity:1;stroke:none;stroke-opacity:1"
       d="m 421.52031,695.48375 0,-27.87684 32.08007,0 32.08006,0 -2.82365,3.77499 c -1.55301,2.07624 -3.83648,5.19596 -5.07438,6.93271 l -2.25073,3.15772 -18.87494,0.0365 -18.87494,0.0365 0,4.04029 0,4.04029 22.14822,0.31546 22.14823,0.31547 -4.29982,5.51729 -4.29982,5.51729 -17.91853,0 -17.91852,0 0.3605,4.35575 0.3605,4.35576 23.67034,0.58077 23.67034,0.58076 -4.82241,6.09806 -4.82241,6.09806 -27.26905,0 -27.26906,0 0,-27.87683 z"
       id="path4231"
       inkscape:connector-curvature="0"
       transform="translate(0,308.26772)" />
    <path
       style="fill:#ed1d24;fill-opacity:1;stroke:none;stroke-opacity:1"
       d="m 522.57383,709.44281 0,-13.91776 28.04274,-0.31104 28.04274,-0.31103 2.38395,-3.19422 2.38396,-3.19422 -2.38202,-3.19422 -2.38202,-3.19422 -26.20829,-0.58077 c -14.41456,-0.31942 -26.57174,-0.94543 -27.01595,-1.39114 -0.44421,-0.4457 1.2122,-3.46613 3.68091,-6.71205 l 4.48856,-5.90169 23.2307,0.45921 c 13.64044,0.26963 25.08956,1.04191 27.73348,1.87072 2.47653,0.77634 6.65806,3.42308 9.29228,5.88165 4.57115,4.26635 4.78782,4.78032 4.75294,11.27475 -0.0422,7.84956 -2.97023,13.07796 -9.05692,16.17219 -2.02588,1.02987 -3.88003,2.04619 -4.12033,2.25849 -0.24031,0.21229 3.09058,4.32734 7.40196,9.14455 l 7.83888,8.75857 -10.41474,0 -10.41473,0 -5.5898,-6.96921 c -5.36713,-6.69158 -5.80237,-6.96949 -10.92565,-6.97617 -2.93471,-0.004 -9.64804,-0.34265 -14.9185,-0.75293 l -9.58266,-0.74596 0,7.72213 0,7.72214 -8.13074,0 -8.13075,0 0,-13.91777 z"
       id="path4233"
       inkscape:connector-curvature="0"
       transform="translate(0,308.26772)" />
    <path
       style="fill:#ed1d24;fill-opacity:1;stroke:none;stroke-opacity:1"
       d="m 660.79647,702.45295 0,-20.90762 -7.2596,-0.10176 c -3.99277,-0.056 -9.7249,-0.44799 -12.73807,-0.87115 l -5.47848,-0.76939 4.66021,-6.09806 4.6602,-6.09806 31.36628,0 c 25.6391,0 31.19668,0.2793 30.43741,1.52966 -0.51088,0.84132 -2.71622,3.97746 -4.90076,6.96921 l -3.97189,5.43955 -10.25691,0 -10.25691,0 0,20.90762 0,20.90763 -8.13074,0 -8.13074,0 0,-20.90763 z"
       id="path4235"
       inkscape:connector-curvature="0"
       transform="translate(0,308.26772)" />
    <path
       style="fill:#000000;fill-opacity:1;stroke:none;stroke-opacity:1"
       d="m 744.42697,695.48375 0,-27.87684 8.13074,0 8.13074,0 0,10.48407 0,10.48406 17.71341,-0.32063 17.7134,-0.32064 0.33561,-10.16343 0.3356,-10.16343 7.50476,0 7.50475,0 0,27.87684 0,27.87683 -7.50639,0 -7.50638,0 -0.33398,-10.7442 -0.33397,-10.74419 -17.7134,-0.32064 -17.71341,-0.32064 0,11.06484 0,11.06483 -8.13074,0 -8.13074,0 0,-27.87683 z"
       id="path4237"
       inkscape:connector-curvature="0"
       transform="translate(0,308.26772)" />
    <path
       style="fill:#000000;fill-opacity:1;stroke:none;stroke-opacity:1"
       d="m 27.604657,724.23173 c -2.133986,-1.97932 -4.415737,-8.10927 -9.40379,-25.26338 -7.403436,-25.46071 -9.0391503,-32.12203 -8.114699,-33.04648 0.350913,-0.35092 4.714044,-0.63803 9.695846,-0.63803 10.653837,0 9.892306,-0.83502 14.300605,15.68072 1.705171,6.38844 3.386062,12.58857 3.735315,13.77807 0.484162,1.64898 1.595102,0.40736 4.676772,-5.2269 12.539532,-22.92623 14.722763,-25.39342 22.470769,-25.39342 5.145006,0 9.437293,4.81877 17.533227,19.68381 l 7.241045,13.29538 2.201967,-8.06847 c 1.211082,-4.43766 3.229844,-11.59663 4.486138,-15.90883 l 2.284172,-7.84036 9.916146,0 9.91616,0 -0.80132,3.77499 c -0.44073,2.07624 -3.09992,11.75612 -5.90933,21.51083 -10.04482,34.87722 -10.80312,36.27552 -19.672375,36.27552 -3.584743,0 -5.869602,-0.75219 -7.938589,-2.61345 -2.210739,-1.98878 -15.073857,-23.22717 -19.873539,-32.81336 -0.364349,-0.72769 -0.8179,-0.66944 -1.214319,0.15596 -3.293007,6.85657 -18.531884,31.65715 -20.423406,33.23817 -3.590992,3.00151 -11.575542,2.69455 -15.106795,-0.58077 z"
       id="path4239"
       inkscape:connector-curvature="0"
       transform="translate(0,308.26772)" />
    <path
       style="fill:#000000;fill-opacity:1;stroke:none;stroke-opacity:1"
       d="m 150.88272,696.10973 0,-30.82589 9.87304,0 9.87305,0 0.24198,24.973 c 0.1331,13.73515 0.26377,27.45578 0.29039,30.49029 l 0.0484,5.51729 -10.16342,0.3356 -10.16343,0.33561 0,-30.8259 z"
       id="path4241"
       inkscape:connector-curvature="0"
       transform="translate(0,308.26772)" />
    <path
       style="fill:#000000;fill-opacity:1;stroke:none;stroke-opacity:1"
       d="m 208.0883,726.07592 c -1.84542,-0.74464 -2.04433,-47.57766 -0.22982,-54.11139 1.24036,-4.46632 5.61435,-7.84222 10.16078,-7.84222 3.31139,0 10.16251,5.0436 25.63932,18.87494 7.68459,6.86757 14.25883,12.4865 14.60942,12.4865 0.3506,0 0.63745,-4.36992 0.63745,-9.71093 0,-5.34101 0.33239,-12.13599 0.73865,-15.09995 l 0.73864,-5.38903 8.96985,0 8.96985,0 0.81889,13.99991 c 0.92393,15.79592 -0.0417,37.22178 -1.89692,42.08853 -1.55301,4.07403 -4.14171,5.4729 -10.12794,5.4729 -4.35411,0 -5.80266,-0.96449 -18.75311,-12.4865 -7.71899,-6.86757 -15.82246,-13.97459 -18.0077,-15.79338 l -3.97319,-3.30688 0,15.08834 c 0,12.68709 -0.29239,15.20055 -1.8373,15.79338 -2.16395,0.83039 -14.35772,0.78281 -16.45687,-0.0642 z"
       id="path4243"
       inkscape:connector-curvature="0"
       transform="translate(0,308.26772)" />
    <path
       style="fill:#000000;fill-opacity:1;stroke:none;stroke-opacity:1"
       d="m 335.56674,705.35679 0,-21.48839 -11.52035,0 c -6.33619,0 -12.33756,-0.3136 -13.33638,-0.69688 -2.24969,-0.86329 -1.23618,-3.07485 5.41085,-11.80692 l 4.65513,-6.11535 33.72394,0.30768 c 21.19395,0.19336 33.85857,0.73924 34.08627,1.46921 0.19928,0.63885 -2.39344,4.55903 -5.76161,8.71151 l -6.12394,7.54998 -10.11314,0.33561 -10.11314,0.3356 0,21.44317 0,21.44317 -10.45382,0 -10.45381,0 0,-21.48839 z"
       id="path4245"
       inkscape:connector-curvature="0"
       transform="translate(0,308.26772)" />
    <path
       style="fill:#000000;fill-opacity:1;stroke:none;stroke-opacity:1"
       d="m 420.64916,726.12278 c -1.10791,-0.48281 -1.45192,-7.76515 -1.45192,-30.73583 l 0,-30.10311 34.84604,0 c 25.7509,0 34.84605,0.35327 34.84605,1.35349 0,0.74441 -2.71593,4.92594 -6.03539,9.29228 l -6.03538,7.93879 -18.35685,0 c -15.54284,0 -18.35684,0.26708 -18.35684,1.7423 0,1.48915 3.29101,1.7423 22.64992,1.7423 17.71433,0 22.64993,0.32635 22.64993,1.49764 0,0.8237 -2.19122,4.48253 -4.86937,8.13074 l -4.86937,6.63311 -17.78056,0 c -17.0062,0 -17.78055,0.10117 -17.78055,2.32307 0,2.2473 0.77435,2.32307 23.74291,2.32307 15.45358,0 24.00826,0.42934 24.50293,1.22974 0.73577,1.1905 -2.28279,6.09108 -8.18577,13.28944 l -2.85754,3.48461 -27.60316,0.24554 c -15.18174,0.13505 -28.25653,-0.0392 -29.05508,-0.38718 z"
       id="path4247"
       inkscape:connector-curvature="0"
       transform="translate(0,308.26772)" />
    <path
       style="fill:#000000;fill-opacity:1;stroke:none;stroke-opacity:1"
       d="m 520.75866,725.33184 c -0.3194,-0.83234 -0.43366,-8.28069 -0.25393,-16.55187 l 0.3268,-15.03853 28.11168,-0.58076 c 28.94649,-0.59802 31.19443,-0.99754 30.34914,-5.39392 -0.57365,-2.98353 -6.52386,-3.70803 -31.30995,-3.81227 -11.25962,-0.0473 -22.09048,-0.40978 -24.06857,-0.8054 -3.23033,-0.64606 -3.46682,-0.97129 -2.32265,-3.19422 0.70063,-1.3612 3.36267,-5.21904 5.91565,-8.57297 l 4.64179,-6.09806 22.26463,0 c 30.74932,0 40.30728,2.78404 45.23918,13.17725 4.03833,8.51013 1.79804,18.4632 -5.62224,24.97829 l -4.38944,3.85398 5.11572,5.42016 c 10.41935,11.03943 10.97,11.82738 9.09436,13.01352 -0.94153,0.59541 -6.93877,1.05562 -13.32722,1.02267 l -11.61534,-0.0599 -6.7775,-8.05306 -6.77749,-8.05305 -12.09745,0 -12.09744,0 0,7.4257 c 0,8.73115 -0.13911,8.83578 -11.7468,8.83578 -5.56101,0 -8.25286,-0.47079 -8.65293,-1.51334 z"
       id="path4249"
       inkscape:connector-curvature="0"
       transform="translate(0,308.26772)" />
    <path
       style="fill:#000000;fill-opacity:1;stroke:none;stroke-opacity:1"
       d="m 658.93736,725.49466 c -0.45907,-0.74279 -1.08395,-10.41257 -1.38862,-21.48839 l -0.55395,-20.13787 -12.5498,0 c -6.90238,0 -12.83944,-0.46866 -13.19344,-1.04145 -0.6579,-1.0645 7.94763,-13.45307 11.19023,-16.10953 2.34576,-1.92174 67.29553,-1.54884 67.94109,0.39007 0.2276,0.68358 -2.22936,4.73444 -5.45991,9.00189 l -5.87372,7.75902 -9.83411,0 -9.83411,0 0,20.78335 c 0,17.8802 -0.25665,20.88184 -1.8373,21.48839 -3.31832,1.27336 -17.72943,0.77341 -18.60636,-0.64548 z"
       id="path4251"
       inkscape:connector-curvature="0"
       transform="translate(0,308.26772)" />
    <path
       style="fill:#000000;fill-opacity:1;stroke:none;stroke-opacity:1"
       d="m 874.77087,723.30398 c -11.25883,-2.01249 -19.0112,-7.55218 -21.18738,-15.14007 -0.62358,-2.17433 -1.13379,-12.21303 -1.13379,-22.30823 l 0,-18.35491 7.84036,0.34346 7.84036,0.34345 0.32106,18.52699 c 0.25663,14.80913 0.6838,18.92783 2.12871,20.52443 4.63121,5.11743 28.77483,6.06626 35.06011,1.37784 3.13686,-2.3399 3.14446,-2.38219 3.42585,-19.06411 0.39309,-23.30385 -0.21272,-21.94592 9.79071,-21.94592 l 8.28616,0 -0.80779,19.89946 c -0.53367,13.14633 -1.34709,20.9314 -2.39693,22.94031 -2.33108,4.46061 -7.5436,9.03597 -12.8311,11.26266 -5.53037,2.32897 -26.96548,3.26966 -36.33633,1.59464 z"
       id="path4253"
       inkscape:connector-curvature="0"
       transform="translate(0,308.26772)" />
    <path
       style="fill:#000000;fill-opacity:1;stroke:none;stroke-opacity:1"
       d="m 966.2801,709.42216 0,-13.93841 27.03762,0 c 30.02468,0 32.20068,-0.47095 32.20068,-6.96921 0,-6.47813 -2.2281,-6.96921 -31.61991,-6.96921 -14.55127,0 -26.45685,-0.30065 -26.45685,-0.66811 0,-0.36746 2.22143,-3.5512 4.93652,-7.07499 l 4.93652,-6.40688 23.82352,0.4482 c 21.999,0.41388 24.2476,0.65348 29.3603,3.12853 3.0453,1.47417 6.9299,4.50667 8.6325,6.73889 6.0616,7.94723 3.0828,20.47885 -6.0352,25.3892 -2.2511,1.21227 -4.0928,2.75499 -4.0928,3.42827 0,0.67328 3.1361,4.32756 6.9692,8.12063 3.8331,3.79307 6.9692,7.30487 6.9692,7.804 0,0.49913 -4.4012,0.90751 -9.7805,0.90751 l -9.7805,0 -5.6098,-6.78643 -5.6099,-6.78644 -14.3674,-0.74642 c -7.90209,-0.41053 -14.82774,-0.46193 -15.39034,-0.11422 -0.5626,0.34771 -1.02291,3.73749 -1.02291,7.53285 l 0,6.90066 -7.54997,0 -7.54998,0 0,-13.93842 z"
       id="path4255"
       inkscape:connector-curvature="0"
       transform="translate(0,308.26772)" />
  </g>
</svg>
